<?xml version="1.0" encoding="utf-8"?>
<!-- Generator: Adobe Illustrator 22.1.0, SVG Export Plug-In . SVG Version: 6.00 Build 0)  -->
<svg version="1.1" xmlns="http://www.w3.org/2000/svg" xmlns:xlink="http://www.w3.org/1999/xlink" x="0px" y="0px" width="17px"
	 height="20px" viewBox="0 0 17 20" enable-background="new 0 0 17 20" xml:space="preserve">
<g id="Camada_2" display="none">
	<rect display="inline" width="17" height="20"/>
</g>
<g id="_x2014_ÎÓÈ_x5F_1">
	<path fill="#FFFFFF" stroke="#FFFFFF" stroke-width="0.75" stroke-miterlimit="10" d="M13.8,7.1H13V5.1c0-2.4-2-4.4-4.4-4.4
		s-4.4,2-4.4,4.4v2.1H3.3c-1.4,0-2.6,1.2-2.6,2.6v7.2c0,1.4,1.2,2.6,2.6,2.6h10.5c1.4,0,2.6-1.2,2.6-2.6V9.7
		C16.3,8.3,15.2,7.1,13.8,7.1z M4.8,5.1c0-2,1.7-3.7,3.7-3.7c2.1,0,3.7,1.7,3.7,3.7v2.1H4.8V5.1z M15.7,16.9c0,1-0.8,1.9-1.9,1.9
		H3.3c-1,0-1.9-0.8-1.9-1.9V9.7c0-1,0.8-1.9,1.9-1.9h10.5c1,0,1.9,0.8,1.9,1.9V16.9z"/>
	<path fill="#FFFFFF" d="M8.5,10.4c-0.9,0-1.6,0.7-1.6,1.6c0,0.4,0.2,0.9,0.5,1.2v1.6c0,0.6,0.5,1.1,1.1,1.1c0.6,0,1.1-0.5,1.1-1.1
		v-1.6c0.3-0.3,0.5-0.7,0.5-1.2C10.1,11.1,9.4,10.4,8.5,10.4z M9.2,12.9L9.2,12.9l-0.1,1.9c0,0.3-0.3,0.6-0.6,0.6
		c-0.3,0-0.6-0.3-0.6-0.6V13l-0.1-0.1c-0.3-0.2-0.4-0.5-0.4-0.9c0-0.6,0.5-1.1,1.1-1.1c0.6,0,1.1,0.5,1.1,1.1
		C9.6,12.4,9.5,12.7,9.2,12.9z"/>
	<circle fill="#FFFFFF" cx="8.5" cy="12" r="1.2"/>
	<ellipse fill="#FFFFFF" cx="8.5" cy="14" rx="0.8" ry="1.6"/>
</g>
</svg>
