<svg xmlns="http://www.w3.org/2000/svg" width="67.389" height="86.059" viewBox="0 0 67.389 86.059"><defs><style>.a{fill:#e1173f;}</style></defs><g transform="translate(1315.3 213.833)"><path class="a" d="M-1204.625-90.9A3.454,3.454,0,0,1-1208-94.4v-1.933a.737.737,0,0,0-.737-.737h-14.79a.737.737,0,0,0-.737.737v1.922a3.378,3.378,0,0,1-3.374,3.374,3.378,3.378,0,0,1-3.374-3.374v-3.51a.736.736,0,0,0-.2-.5,4.514,4.514,0,0,1-1.207-3.083v-3.072a.737.737,0,0,0-.539-.71c-1.248-.349-2.318-2.348-2.318-3.739a2.826,2.826,0,0,1,2.714-2.883h1.082a.737.737,0,0,0,.493-.189.8.8,0,0,0,.245-.405l2.485-4.2c.434-.765,2.71-4.526,5.552-4.526h13.013c2.758,0,4.946,3.457,5.551,4.516l2.506,4.242a.745.745,0,0,0,.714.565h1.064a2.824,2.824,0,0,1,2.71,2.873c0,1.389-1.062,3.384-2.3,3.747a.737.737,0,0,0-.53.707v3.071a4.49,4.49,0,0,1-1.1,2.939.739.739,0,0,0-.18.483v3.681A3.457,3.457,0,0,1-1204.625-90.9Zm-1.961-3.549a1.979,1.979,0,0,0,.909,1.851,1.965,1.965,0,0,0,1.052.3,1.965,1.965,0,0,0,1.052-.3,1.979,1.979,0,0,0,.909-1.851v-1.971a.737.737,0,0,0-.268-.569.737.737,0,0,0-.469-.168.724.724,0,0,0-.14.014,4.119,4.119,0,0,1-.71.074h-1.6a.737.737,0,0,0-.737.737Zm-23.03.009a2.045,2.045,0,0,0,1.91,2.107l.051,0h.041a2.065,2.065,0,0,0,1.937-2.108v-1.91a.737.737,0,0,0-.737-.737h-1.744a4.048,4.048,0,0,1-.591-.063.721.721,0,0,0-.131-.012.737.737,0,0,0-.472.171.736.736,0,0,0-.265.566ZM-1231-101.55a2.95,2.95,0,0,0,.773,2.1,2.949,2.949,0,0,0,2.053.943h23.963a2.95,2.95,0,0,0,2.053-.943,2.949,2.949,0,0,0,.773-2.1v-4.371a.707.707,0,0,1,.707-.707h.842a.738.738,0,0,0,.186-.024c.944-.246,1.095-2.355,1.095-2.376a1.292,1.292,0,0,0-1.275-1.281h-32.758a1.289,1.289,0,0,0-1.286,1.275c0,.027.152,2.139,1.107,2.383a.743.743,0,0,0,.182.023h.878a.707.707,0,0,1,.706.707Zm8.3-18.271c-1.7,0-3.126,1.811-4.3,3.582-.009.014-.018.028-.026.042l-1.808,3.185a.737.737,0,0,0,0,.734.737.737,0,0,0,.637.366h24.012a.737.737,0,0,0,.637-.366.737.737,0,0,0,0-.735l-1.812-3.194-.022-.036c-1.076-1.667-2.536-3.579-4.3-3.579Z" transform="translate(-65.282 -75.537)"/><path class="a" d="M-1096.1-29.335a.707.707,0,0,1-.706-.706.707.707,0,0,1,.706-.706h3.036a.707.707,0,0,1,.706.706.707.707,0,0,1-.706.706Z" transform="translate(-178.238 -149.351)"/><path class="a" d="M-1190.13-29.335a.707.707,0,0,1-.707-.706.707.707,0,0,1,.707-.706h3.036a.707.707,0,0,1,.707.706.707.707,0,0,1-.707.706Z" transform="translate(-101.53 -149.351)"/><path class="a" d="M-1304.427,135.468a.7.7,0,0,1-.649-.457.691.691,0,0,1,.212-.765l8.931-7.272a.712.712,0,0,1,.45-.161.725.725,0,0,1,.077,0l21.971,2.535a1.284,1.284,0,0,0,.148.009,1.3,1.3,0,0,0,.585-.14c2.276-1.157,12.532-8.146,21.025-14.135a.557.557,0,0,1,.074-.047,1.284,1.284,0,0,0,.167-.1,6.464,6.464,0,0,0,1.737-1.885l.031-.051a1.244,1.244,0,0,0,.065-.12,2.133,2.133,0,0,0,.3-1.3,1.3,1.3,0,0,0-.171-.537,1.8,1.8,0,0,0-1.651-.772,3.681,3.681,0,0,0-1.79.492.661.661,0,0,1-.1.044l-.03.012c-.663.266-9.04,3.848-14.509,6.19a1.293,1.293,0,0,0-.78,1.264,4.95,4.95,0,0,1-.073,1.2,4.772,4.772,0,0,1-4.674,3.836,4.83,4.83,0,0,1-.85-.076l-18.834-3.552a.7.7,0,0,1-.5-.8.689.689,0,0,1,.675-.561.714.714,0,0,1,.106.008l18.823,3.551a3.413,3.413,0,0,0,.606.055,3.381,3.381,0,0,0,3.307-2.716,3.26,3.26,0,0,0-.2-1.924,3.244,3.244,0,0,0-.325-.6,1.3,1.3,0,0,0-.412-.382,11.941,11.941,0,0,0-3.443-1.343l-20.111-3.79a.382.382,0,0,1-.053-.012,4.083,4.083,0,0,0-1.218-.186,4.089,4.089,0,0,0-2.145.607c-.028.015-.054.028-.08.039a1.406,1.406,0,0,0-.23.124l-16.224,10.984a.706.706,0,0,1-.424.145.674.674,0,0,1-.292-.066.689.689,0,0,1-.4-.582.688.688,0,0,1,.322-.625l16.369-11.126a1.09,1.09,0,0,1,.207-.1,1.333,1.333,0,0,0,.2-.093,5.445,5.445,0,0,1,2.713-.725,5.433,5.433,0,0,1,1.486.207c.038.011.076.02.113.027l19.971,3.767a12.217,12.217,0,0,1,4.418,1.929,1.288,1.288,0,0,0,.86.329,1.284,1.284,0,0,0,.507-.1c10.994-4.706,13.749-5.875,14.5-6.183.041-.017.08-.035.118-.055a5.1,5.1,0,0,1,2.379-.62,3.169,3.169,0,0,1,2.849,1.451,3.254,3.254,0,0,1-.232,3.392l-.073.111a7.766,7.766,0,0,1-2.364,2.407l-.036.024c-13.778,9.713-21,14.461-22.074,14.516a.4.4,0,0,1-.056-.005l-21.637-2.5a1.33,1.33,0,0,0-.148-.008,1.3,1.3,0,0,0-.817.292l-8.27,6.77a.656.656,0,0,1-.412.147Z" transform="translate(0 -263.242)"/><path class="a" d="M-1235.382-160.263a.689.689,0,0,1-.611-.685.688.688,0,0,1,.611-.684h5.65a3.488,3.488,0,0,0,3.484-3.484l.035-23.765a5.405,5.405,0,0,0-1.894-4.136l-21.866-18.605a3.232,3.232,0,0,0-2.117-.785,3.247,3.247,0,0,0-2.125.793l-21.6,18.591a5.407,5.407,0,0,0-1.892,4.138l.039,23.759a3.486,3.486,0,0,0,3.484,3.481h5.7l.085,0h.047a.692.692,0,0,1,.589.331.688.688,0,0,1,0,.716.692.692,0,0,1-.589.331h-.046c-.03,0-.058,0-.086,0h-5.7a4.849,4.849,0,0,1-3.451-1.434,4.846,4.846,0,0,1-1.424-3.456l-.04-23.767a6.807,6.807,0,0,1,2.368-5.163l21.6-18.616a4.607,4.607,0,0,1,3.01-1.121,4.6,4.6,0,0,1,3.009,1.12l21.913,18.674a6.8,6.8,0,0,1,2.372,5.161l-.035,23.76a4.892,4.892,0,0,1-4.88,4.854h-5.649Z" transform="translate(-29.533)"/></g></svg>