<svg xmlns="http://www.w3.org/2000/svg" width="82.001" height="82" viewBox="0 0 82.001 82"><defs><style>.a{fill:#e1173f;}</style></defs><path class="a" d="M80.933,25.266a5.2,5.2,0,0,0,.869-2.879,5.294,5.294,0,0,0-5.29-5.26h-.6A1.345,1.345,0,0,1,74.555,15.8v-.472A5.275,5.275,0,0,0,67.147,10.5,41,41,0,1,0,80.933,25.263ZM67.808,20.9V14.746H70.8V20.9h6.249V23.9H70.8v6.2H67.808V23.9H61.693V20.9ZM44.976,81.214A36.225,36.225,0,1,1,64.093,14.24a5.253,5.253,0,0,0-.119,1.088V15.7a1.408,1.408,0,0,1-1.419,1.427h-.312a5.242,5.242,0,0,0-1.516.249,32.149,32.149,0,1,0,13.225,14.5,5.2,5.2,0,0,0,.587-2.366V28.5a.851.851,0,0,1,.858-.836h1.114c.085,0,.167-.022.253-.026A36.21,36.21,0,0,1,44.976,81.214ZM35.989,59.478l-.554-.234a1.461,1.461,0,0,1,1.114-2.7l.557.234a30.11,30.11,0,0,0,7,2.292c3.689.531,6.706-.461,8.284-2.693a5.632,5.632,0,0,0,.412-5.877c-1.259-2.422-4.146-3.808-7.931-3.808h-.137c-5.023,0-8.916-1.95-10.7-5.364a8.478,8.478,0,0,1,.643-8.842,10.436,10.436,0,0,1,8.582-4.124V23.884a1.464,1.464,0,1,1,2.924,0v4.673a34.2,34.2,0,0,1,7.5,2.459l.49.2a1.461,1.461,0,0,1-1.114,2.7l-.494-.2a30.265,30.265,0,0,0-7.084-2.326c-3.715-.524-6.8.49-8.418,2.783a5.572,5.572,0,0,0-.435,5.8c1.256,2.415,4.205,3.793,8.1,3.793h.137c4.915,0,8.749,1.962,10.528,5.379a8.567,8.567,0,0,1-.62,8.916c-1.835,2.6-4.9,4-8.593,4.049v4.458a1.464,1.464,0,1,1-2.924,0V61.881A34.76,34.76,0,0,1,35.989,59.478Z" transform="translate(-4 -4)"/></svg>