<svg xmlns="http://www.w3.org/2000/svg" width="42.113" height="42.049" viewBox="0 0 42.113 42.049"><defs><style>.a{fill:none;stroke:#e80033;stroke-linecap:round;stroke-linejoin:round;stroke-width:2px;}</style></defs><g transform="translate(-483.385 -258.932)"><path class="a" d="M505.3,275.767l-6.135-6.126.084-.228a7.485,7.485,0,0,0-9.178-9.178l-.949.888,4.239,4.366a1.4,1.4,0,0,1,0,1.988l-1.518,1.611a1.406,1.406,0,0,1-1.99,0l-4.4-4.485-.7.945a7.485,7.485,0,0,0,9.178,9.178l.208-.066,6.128,6.133"/><path class="a" d="M492.956,273.475l6.005,6.01a7.492,7.492,0,1,0,5.033-5.044l-6.007-6" transform="translate(10.847 10.855)"/><path class="a" d="M498.654,275.2a2.279,2.279,0,0,1,0,3.223l-6.316,6.313a2.278,2.278,0,0,1-3.223,0l-3.912-3.912a2.279,2.279,0,0,1,0-3.223l6.316-6.315" transform="translate(0.048 14.495)"/><path class="a" d="M497.148,279.3l9.319-9.319h2.949l3.4-7.909-2.091-2.091-7.893,3.4-.016,3.186-9.2,9.2" transform="translate(11.686 0)"/><line class="a" y1="5.231" x2="5.231" transform="translate(498.573 284.329)"/></g></svg>