<svg xmlns="http://www.w3.org/2000/svg" width="41.139" height="26.454" viewBox="0 0 41.139 26.454"><defs><style>.a{fill:none;stroke:#ffffff;stroke-linecap:round;stroke-linejoin:round;stroke-width:0.75px;}</style></defs><g transform="translate(-1161.475 -951.518)"><g transform="translate(-187.542 32.175)"><path class="a" d="M1349.542,934.537s3.229-4.309,4-5.487a3.627,3.627,0,0,1,2.973-1.838l5.834.007a1.831,1.831,0,0,1,1.827,1.8h0a1.829,1.829,0,0,1-1.83,1.855h-5.489" transform="translate(0 3.472)"/><path class="a" d="M1371.671,932.218l-2.406,2.409a8.45,8.45,0,0,1-2.889,1.893l-9.333,3.014" transform="translate(3.475 5.791)"/><ellipse class="a" cx="4.579" cy="4.488" rx="4.579" ry="4.488" transform="translate(1368.741 924.374)"/><path class="a" d="M1354.543,934.349v2.2a1.464,1.464,0,0,0,1.463,1.463h30a1.464,1.464,0,0,0,1.463-1.463V921.181a1.463,1.463,0,0,0-1.463-1.463h-30a1.463,1.463,0,0,0-1.463,1.463v2.195" transform="translate(2.317)"/></g></g></svg>