<?xml version="1.0" encoding="utf-8"?>
<!-- Generator: Adobe Illustrator 22.1.0, SVG Export Plug-In . SVG Version: 6.00 Build 0)  -->
<svg version="1.1" id="Camada_3_1_" xmlns="http://www.w3.org/2000/svg" xmlns:xlink="http://www.w3.org/1999/xlink" x="0px"
	 y="0px" width="37.9px" height="38px" viewBox="0 0 37.9 38" enable-background="new 0 0 37.9 38" xml:space="preserve">
<path display="none" fill="#CC092F" d="M17.1,37.7c-0.3,0-0.9-0.1-0.9-0.8c0-0.9,1-1,1.3-1c0.5,0,2.4-0.2,3.1-1.5
	c0.3-0.8,0.3-1.7,0.3-2.8l0.1-3c0-0.5,0.1-1.5,0.1-1.5c0.2-1,0.5-1.6,0.9-2.1h0c0,0,2.2-2.7,2.6-3.2c0.3-0.3,1.3-2,1.3-2
	c0.5-1.1,0.5-2.1,0.5-3.1c0-2.5-1-4.8-2.9-6.6c-1.9-1.8-4.1-2.7-6.8-2.7c-2.6,0-5,1-6.8,2.7C8,11.8,7,14,7,16.6
	c0,0.3-0.1,0.6-0.3,0.7c-0.2,0.2-0.4,0.3-0.6,0.3c-0.3,0-0.7-0.1-0.8-0.3C5.1,17.1,5,17,5,16.8C5,15.4,5.3,14,6,12.4
	c0.5-1.3,1.3-2.5,2.5-3.6C11.4,6.1,14,5.4,17,5.3c1.5,0,2.7,0.2,4.4,0.8c1.3,0.5,2.6,1.3,3.7,2.4c1,1,1.9,2.4,2.5,3.8
	c0.6,1.6,0.8,2.8,0.8,4.1c-0.5,6.4-4.7,8.6-5.3,10.3c-0.3,0.6-0.3,5.7-0.3,5.7c0,0.9-0.2,1.8-0.5,2.6C21.1,37.4,18.9,37.6,17.1,37.7
	z M0.5,36.4c-0.6-0.6-0.2-1.6-0.1-1.7c2.6-2.5,10.4-10,10.4-10c0.4-0.4,1-0.7,1.7-0.2c0.9,0.9,0.2,1.5-0.1,1.8L2.1,36.3
	C1.7,36.5,0.9,36.8,0.5,36.4z M12.5,17.3c-0.3,0-0.6-0.3-0.6-0.6c0.2-3.4,2.4-5.2,5.3-5.2c1.5,0,2.9,0.7,3.9,1.6
	c0.9,1,1.4,2.3,1.4,3.6c-0.1,0.4-0.2,0.6-0.8,0.6c-0.8,0-0.7-0.7-0.7-0.7c0-0.9-0.5-2-1.3-2.8c-0.8-0.7-1.6-1.1-2.7-1.1
	c-1.3-0.2-3.4,1.1-3.7,3.9C13.2,16.9,13,17.3,12.5,17.3z M30.6,8c-0.3,0-0.6-0.1-0.8-0.2c-0.3-0.4-0.3-0.6-0.3-1
	c0-0.3,0.1-0.6,0.3-0.7l5.6-5.4c0.4-0.2,1.1-0.9,1.9-0.1c0.8,0.8,0.2,1.6,0.1,1.7l-5.6,5.4C31.3,7.8,31,8,30.6,8z"/>
<path fill="#FFFFFF" d="M17.1,37.7c-0.3,0-0.9-0.1-0.9-0.8c0-0.9,1-1,1.3-1c0.5,0,2.4-0.2,3.1-1.5c0.3-0.8,0.3-1.7,0.3-2.8l0.1-3
	c0-0.5,0.1-1.5,0.1-1.5c0.2-1,0.5-1.6,0.9-2.1h0c0,0,2.2-2.7,2.6-3.2c0.3-0.3,1.3-2,1.3-2c0.5-1.1,0.5-2.1,0.5-3.1
	c0-2.5-1-4.8-2.9-6.6c-1.9-1.8-4.1-2.7-6.8-2.7c-2.6,0-5,1-6.8,2.7C8,11.8,7,14,7,16.6c0,0.3-0.1,0.6-0.3,0.7
	c-0.2,0.2-0.4,0.3-0.6,0.3c-0.3,0-0.7-0.1-0.8-0.3C5.1,17.1,5,17,5,16.8C5,15.4,5.3,14,6,12.4c0.5-1.3,1.3-2.5,2.5-3.6
	C11.4,6.1,14,5.4,17,5.3c1.5,0,2.7,0.2,4.4,0.8c1.3,0.5,2.6,1.3,3.7,2.4c1,1,1.9,2.4,2.5,3.8c0.6,1.6,0.8,2.8,0.8,4.1
	c-0.5,6.4-4.7,8.6-5.3,10.3c-0.3,0.6-0.3,5.7-0.3,5.7c0,0.9-0.2,1.8-0.5,2.6C21.1,37.4,18.9,37.6,17.1,37.7z M0.5,36.4
	c-0.6-0.6-0.2-1.6-0.1-1.7c2.6-2.5,10.4-10,10.4-10c0.4-0.4,1-0.7,1.7-0.2c0.9,0.9,0.2,1.5-0.1,1.8L2.1,36.3
	C1.7,36.5,0.9,36.8,0.5,36.4z M12.5,17.3c-0.3,0-0.6-0.3-0.6-0.6c0.2-3.4,2.4-5.2,5.3-5.2c1.5,0,2.9,0.7,3.9,1.6
	c0.9,1,1.4,2.3,1.4,3.6c-0.1,0.4-0.2,0.6-0.8,0.6c-0.8,0-0.7-0.7-0.7-0.7c0-0.9-0.5-2-1.3-2.8c-0.8-0.7-1.6-1.1-2.7-1.1
	c-1.3-0.2-3.4,1.1-3.7,3.9C13.2,16.9,13,17.3,12.5,17.3z M30.6,8c-0.3,0-0.6-0.1-0.8-0.2c-0.3-0.4-0.3-0.6-0.3-1
	c0-0.3,0.1-0.6,0.3-0.7l5.6-5.4c0.4-0.2,1.1-0.9,1.9-0.1c0.8,0.8,0.2,1.6,0.1,1.7l-5.6,5.4C31.3,7.8,31,8,30.6,8z"/>
</svg>
