<svg xmlns="http://www.w3.org/2000/svg" viewBox="0 0 92 92"><circle data-name="ref círculo" cx="46" cy="46" r="45" fill="none" stroke="#e5173f" stroke-miterlimit="10" stroke-width="2"/><path d="M34.91 34.7a.5.5 0 00-.5.5v21.6a.5.5 0 001 0V35.2a.5.5 0 00-.5-.5zm5-.06a1 1 0 00-1 1v20.72a1 1 0 002 0V35.64a1 1 0 00-1-1zM32.92 64h-5.31a5 5 0 01-5-5v-5.13a1 1 0 10-2 0V59a7 7 0 007 7h5.31a1 1 0 000-2zm11-29.31a1 1 0 00-1 1v20.67a1 1 0 002 0V35.64a1 1 0 00-1.01-1zm-11 21.72V35.64a1 1 0 10-2 0v20.72a1 1 0 002 0zm0-30.31h-5.31a7 7 0 00-7 7v4.63a1 1 0 002 0v-4.68a5 5 0 015-5h5.31a1 1 0 000-2zm28 30.31V35.64a1 1 0 00-2 0v20.72a1 1 0 002 0zm9.48-3.49a1 1 0 00-1 1V59a5 5 0 01-5 5h-5.9a1 1 0 000 2h5.89a7 7 0 007-7v-5.13a1 1 0 00-1-1zM46.91 34.7a.5.5 0 00-.5.5v21.6a.5.5 0 001 0V35.2a.5.5 0 00-.5-.5zm17.48-8.65H58.5a1 1 0 000 2h5.89a5 5 0 015 5v4.63a1 1 0 002 0v-4.63a7 7 0 00-7-7zm-14.48 8.59a1 1 0 00-1 1v20.72a1 1 0 002 0V35.64a1 1 0 00-1-1zm5 .06a.5.5 0 00-.5.5v21.6a.5.5 0 001 0V35.2a.5.5 0 00-.5-.5z" fill="#e5173f"/></svg>