<svg xmlns="http://www.w3.org/2000/svg" xmlns:xlink="http://www.w3.org/1999/xlink" width="41.024" height="40" viewBox="0 0 41.024 40"><defs><style>.a{fill:#fff;stroke:#707070;opacity:0;}.b{clip-path:url(#a);}.c,.d{fill:none;stroke-linejoin:round;}.c,.d,.e{stroke:#e80033;stroke-linecap:round;stroke-width:2px;}.c{stroke-miterlimit:10;}.e{fill:#e80033;}</style><clipPath id="a"><path class="a" d="M0,0H40V40H0Z"/></clipPath></defs><g transform="translate(0.512)"><ellipse class="c" cx="7" cy="7" rx="7" ry="7" transform="translate(13 7.31)"/><g transform="translate(0 2.405)"><line class="d" y2="4.868" transform="translate(20 29.766)"/><line class="d" x2="14.634" transform="translate(12.683 34.634)"/><path class="d" d="M.859,22.439H39.512V26.9a2.927,2.927,0,0,1-2.927,2.927H3.415A2.927,2.927,0,0,1,.488,26.9V3.483A2.927,2.927,0,0,1,3.415.556H36.585a2.927,2.927,0,0,1,2.927,2.927V15.19"/></g><path class="e" d="M14,7a7,7,0,0,1-7,7,29.476,29.476,0,0,1-3.814-1.982l9.622-7.94A18.385,18.385,0,0,1,14,7Z" transform="translate(13 7.31)"/></g></svg>