<?xml version="1.0" encoding="UTF-8"?>
<svg width="33px" height="33px" viewBox="0 0 33 33" version="1.1" xmlns="http://www.w3.org/2000/svg" xmlns:xlink="http://www.w3.org/1999/xlink">
    <title>Untitled</title>
    <g id="Page-1" stroke="none" stroke-width="1" fill="none" fill-rule="evenodd">
        <g id="icon_acessibilidade">
            <ellipse id="Oval" stroke="#FFFFFF" cx="16.392" cy="16.391" rx="15.892" ry="15.891"></ellipse>
            <path d="M27.7289778,8.79504712 C30.8496026,13.3710686 30.9063671,19.3763392 27.8728013,24.0105328 C24.8392355,28.6447264 19.3127689,30.9951867 13.8704557,29.9658671 C6.43959641,28.5604484 1.55480518,21.3974888 2.95968125,13.9665269 C3.98860339,8.52413853 8.19467586,4.23747887 13.6165592,3.1054661 C19.0384426,1.97345332 24.6083529,4.21902563 27.7289778,8.79504712 Z M16.439,7.108 C15.0085825,7.108 13.849,8.2675825 13.849,9.698 C13.849,10.1787747 13.9799963,10.6289535 14.2082436,11.0147911 C13.6531232,10.9439581 13.1005507,10.8473528 12.553,10.726 L12.553,10.726 L11.709,10.536 L9.347,10.056 C9.10848161,10.0049257 8.86488276,9.98143818 8.621,9.986 L8.621,9.986 C8.49971717,10.0144053 8.38801476,10.0653334 8.289,10.136 C8.19751799,10.1969103 8.11271556,10.2672997 8.036,10.346 C7.95164665,10.4479553 7.88412862,10.562736 7.836,10.686 C7.79224736,10.8151658 7.76666907,10.9497883 7.76,11.086 L7.76,11.086 L7.76,11.476 C7.77401598,11.6081535 7.81125419,11.7367946 7.87,11.856 C7.93378843,11.991763 8.01369727,12.1193486 8.108,12.236 C8.26493378,12.3714218 8.44121117,12.4826485 8.631,12.566 L8.631,12.566 L9.416,12.856 C9.677,12.936 10.197,13.076 10.597,13.156 L10.597,13.156 L11.829,13.406 L12.757,13.596 L13.601,13.766 C13.829,13.816 13.964,14.856 13.964,16.076 L13.964,16.076 L13.964,17.196 C13.93,18.416 13.879,19.646 13.854,19.846 C13.829,20.046 13.767,20.506 13.719,20.846 C13.671,21.186 13.578,21.766 13.519,22.136 C13.351,22.9226667 13.1486667,23.696 12.912,24.456 C12.7001118,25.1097551 12.5366696,25.7782305 12.423,26.456 C12.4256244,26.6423197 12.4538899,26.8273909 12.507,27.006 C12.5583944,27.1071082 12.6175727,27.2040671 12.684,27.296 C12.7469315,27.3822157 12.8175542,27.4625448 12.895,27.536 C12.9753825,27.6060173 13.0703471,27.6572572 13.173,27.686 C13.2701027,27.7168929 13.3711268,27.7337303 13.473,27.736 L13.473,27.736 L13.773,27.736 C13.8814073,27.7285214 13.9854533,27.6903712 14.073,27.626 C14.2091757,27.4875532 14.3280448,27.3330905 14.427,27.166 C14.6234149,26.7641296 14.7843596,26.3458741 14.908,25.916 C15.0165714,25.5588571 15.1593265,25.0333469 15.2812362,24.5690612 L15.414,24.056 C15.549,23.526 15.751,22.576 15.878,21.946 C16.005,21.316 16.215,20.786 16.342,20.786 C16.4472894,20.7696633 16.5548136,20.7947523 16.642,20.856 C16.76,21.29 16.86,21.73 16.942,22.176 C17.102,22.816 17.414,24.026 17.625,24.816 C17.836,25.606 18.081,26.456 18.165,26.706 C18.2440082,26.9465024 18.3486076,27.1778278 18.477,27.396 C18.5559929,27.5122688 18.658121,27.6109927 18.777,27.686 C18.8737942,27.7354378 18.9803596,27.7627623 19.089,27.766 L19.089,27.766 L19.389,27.766 C19.4757457,27.7655751 19.561614,27.7486051 19.642,27.716 C19.7249335,27.6892863 19.8042118,27.6523345 19.878,27.606 C19.9618222,27.5450001 20.0383279,27.4745343 20.106,27.396 C20.1783594,27.3063835 20.2407283,27.2091418 20.292,27.106 C20.3505784,26.9651834 20.3902564,26.8172314 20.41,26.666 C20.4395535,26.4939264 20.4395535,26.3180736 20.41,26.146 C20.3586667,25.9426667 20.2996667,25.7426667 20.233,25.546 C20.169,25.366 20.033,24.976 19.933,24.646 C19.833,24.316 19.701,23.896 19.633,23.646 C19.565,23.396 19.439,22.846 19.346,22.396 C19.253,21.946 19.143,21.216 19.093,20.756 C19.043,20.296 18.959,19.526 18.916,19.026 C18.873,18.526 18.823,17.596 18.789,16.956 C18.755,16.316 18.713,15.346 18.696,14.796 C18.679,14.246 18.842,13.726 19.042,13.726 L19.042,13.726 L20.105,13.536 C20.518,13.466 21.05,13.346 21.362,13.266 L21.362,13.266 L22.569,12.956 L23.725,12.646 C23.9529583,12.586736 24.1759637,12.5098376 24.392,12.416 C24.5101272,12.3444302 24.6204003,12.260636 24.721,12.166 C24.813597,12.0891974 24.8932757,11.9980396 24.957,11.896 C25.008628,11.8012831 25.048266,11.7005085 25.075,11.596 C25.1020696,11.4812755 25.1161581,11.3638718 25.117,11.246 C25.1262483,11.1361944 25.1262483,11.0258056 25.117,10.916 C25.0901363,10.8094456 25.0533074,10.705655 25.007,10.606 C24.9450381,10.4908664 24.8745059,10.3805554 24.796,10.276 C24.7033327,10.1836793 24.594537,10.1091154 24.475,10.056 C24.3331684,10.0100995 24.1850732,9.9864852 24.036,9.986 C23.901,9.986 22.956,10.156 21.944,10.366 L21.944,10.366 L20.189,10.726 C19.6870556,10.8396309 19.1811902,10.9347382 18.6724334,11.011149 C18.8991199,10.6251085 19.029,10.1767218 19.029,9.698 C19.029,8.2675825 17.8694175,7.108 16.439,7.108 Z" id="Combined-Shape" fill="#FFFFFF" fill-rule="nonzero"></path>
            <path d="M16.439,7.108 C17.8694175,7.108 19.029,8.2675825 19.029,9.698 C19.029,11.1284175 17.8694175,12.288 16.439,12.288 C15.0085825,12.288 13.849,11.1284175 13.849,9.698 C13.849,8.2675825 15.0085825,7.108 16.439,7.108 Z" id="Path" stroke="#FFFFFF" stroke-width="0.72" fill-rule="nonzero"></path>
        </g>
    </g>
</svg>