<svg xmlns="http://www.w3.org/2000/svg" width="17.111" height="15.149" viewBox="0 0 17.111 15.149"><defs><style>.a{fill:none;stroke-linecap:round;stroke-linejoin:round;}.a,.b{stroke:#e80033;}.b{fill:#e80033;}</style></defs><g transform="translate(-171.142 -621.017)"><path class="a" d="M192.643,633.383v-.271a1.086,1.086,0,0,1,1.086-1.086h1.856a1.086,1.086,0,0,1,1.086,1.086v.841a1.086,1.086,0,0,1-1.086,1.085H195.2a.543.543,0,0,0-.543.543v1.476" transform="translate(-14.959 -7.486)"/><path class="b" d="M198.86,655.914a.225.225,0,1,0,.225-.225.225.225,0,0,0-.225.225" transform="translate(-19.388 -24.341)"/><path class="a" d="M177.684,621.517h-3.374a2.656,2.656,0,0,0-2.667,2.644v6.8a2.656,2.656,0,0,0,2.667,2.644h3.146a.509.509,0,0,1,.359.147l1.614,1.753a.383.383,0,0,0,.539,0l1.614-1.753a.509.509,0,0,1,.359-.147h3.146a2.655,2.655,0,0,0,2.667-2.644v-6.8a2.655,2.655,0,0,0-2.667-2.644h-3.354"/></g></svg>