<svg xmlns="http://www.w3.org/2000/svg" width="41.276" height="42.295" viewBox="0 0 41.276 42.295"><defs><style>.a,.c{fill:none;stroke:#e80033;stroke-miterlimit:10;stroke-width:2px;}.b{fill:#fff;}.c{stroke-linecap:round;stroke-linejoin:round;}</style></defs><g transform="translate(-264.75 -228)"><g transform="translate(269.393 229)"><g transform="translate(0 0)"><path class="a" d="M334.255,233.312a2,2,0,0,0-.093-.573,1.557,1.557,0,0,0-.372-.516,3.442,3.442,0,0,0-.516-.387,1.68,1.68,0,0,0-.573-.158,3.586,3.586,0,0,0-.623.007,2.081,2.081,0,0,0-.623.229,1.711,1.711,0,0,0-.523.487,2.768,2.768,0,0,0-.3.659c-.064.2-.172.659-.243,1.01s-.165.917-.215,1.253-.122.9-.165,1.246-.143,1.074-.215,1.6-.158,1.2-.186,1.468-.107.945-.165,1.49l-.107.974c-.064.551-.093.544-.072-.007l.057-1.518c.021-.551.036-1.282.036-1.626s.007-.967.021-1.382.029-1.16.029-1.654.014-1.253.029-1.7.014-1.1.014-1.447-.007-.874,0-1.16a7.672,7.672,0,0,0-.036-.867,2.437,2.437,0,0,0-.158-.609,3.09,3.09,0,0,0-.38-.559,2.021,2.021,0,0,0-.587-.444,2.172,2.172,0,0,0-.731-.136,2.244,2.244,0,0,0-.759.158,2.141,2.141,0,0,0-.637.473,2.368,2.368,0,0,0-.394.845,8.984,8.984,0,0,0-.158,1.132c-.021.337-.029,1.06-.007,1.611l.337,10.435c.014.551-.021.551-.093.007l-1.311-10.45a9.057,9.057,0,0,0-.236-1.268,1.92,1.92,0,0,0-.308-.473,3.107,3.107,0,0,0-.437-.365,1.448,1.448,0,0,0-.516-.208c-.15-.021-.372-.043-.494-.05a2.418,2.418,0,0,0-.451.05,2.387,2.387,0,0,0-.458.172,2.622,2.622,0,0,0-.387.265,1.6,1.6,0,0,0-.272.344,4,4,0,0,0-.215.43,2.327,2.327,0,0,0-.15.48,6.976,6.976,0,0,0,.072,1.239l.816,6.761c.064.544.208,1.44.315,1.977l.3,1.49c.107.537.093.544-.036.007l-1.6-6.74a7.331,7.331,0,0,0-.38-1.225,1.9,1.9,0,0,0-.337-.408,2.215,2.215,0,0,0-.43-.279,3.273,3.273,0,0,0-.53-.193,1.375,1.375,0,0,0-.466-.036,3.585,3.585,0,0,0-.387.107,2.284,2.284,0,0,0-.444.215,2.5,2.5,0,0,0-.387.3,2.266,2.266,0,0,0-.3.394,1.661,1.661,0,0,0-.186.48,1.812,1.812,0,0,0-.022.48c.014.129.029.344.029.473a10.251,10.251,0,0,0,.222,1.218l3.309,15.112a7.349,7.349,0,0,0,.351,1.246,3.821,3.821,0,0,0,.322.487,4.871,4.871,0,0,0,.372.387,1.609,1.609,0,0,0,.494.265,4.21,4.21,0,0,0,.888.129c.315.014.781.043,1.017.05s.788.043,1.225.057,1.239.057,1.791.086l.208.014c.552.029,1.454.072,2.005.093l.981.043a11.706,11.706,0,0,0,1.354,0,2.912,2.912,0,0,0,.788-.265,4.934,4.934,0,0,0,1-.838c.315-.337.874-.945,1.246-1.354l.258-.279c.372-.408.945-1.039,1.268-1.4a14.286,14.286,0,0,0,1.124-1.511l.394-.637c.294-.466.731-1.253.974-1.755l.2-.408c.244-.494.63-1.261.852-1.7a13.413,13.413,0,0,0,.6-1.332,4.283,4.283,0,0,0,.222-.831,1.943,1.943,0,0,0-.115-.688,1.907,1.907,0,0,0-.516-.673,2.033,2.033,0,0,0-.731-.358,3.771,3.771,0,0,0-.673-.057,2.625,2.625,0,0,0-.738.193,1.67,1.67,0,0,0-.594.423c-.093.136-.372.645-.623,1.139l-.566,1.124a16.813,16.813,0,0,1-.9,1.561,2.353,2.353,0,0,1-.688.745.851.851,0,0,1-.415.029.583.583,0,0,1-.279-.251,3.678,3.678,0,0,1-.036-1.2l.938-11.889C334.219,234.078,334.255,233.491,334.255,233.312Z" transform="translate(-316.6 -229)"/></g><g transform="translate(6.745 12.841)"><path class="b" d="M411.452,428.33a2.143,2.143,0,0,0-.165.559,1.6,1.6,0,0,0,.115.623,3.029,3.029,0,0,0,.308.573,1.731,1.731,0,0,0,.451.387,4.94,4.94,0,0,0,.566.265,1.743,1.743,0,0,0,.659.057,1.9,1.9,0,0,0,.68-.215,3.064,3.064,0,0,0,.559-.466c.143-.158.437-.523.645-.809s.537-.759.723-1.039.494-.759.688-1.053.587-.91.881-1.361.652-1.017.8-1.246.487-.816.766-1.3l1.375-2.371c.279-.48.294-.466.043.021l-1.511,2.915c-.251.487-.58,1.146-.723,1.454s-.415.874-.609,1.246-.523,1.039-.738,1.483-.551,1.125-.752,1.526-.48.981-.63,1.3-.372.795-.494,1.046a7.23,7.23,0,0,0-.337.795,2.257,2.257,0,0,0-.115.616,3.137,3.137,0,0,0,.1.666,1.874,1.874,0,0,0,.337.652,2.1,2.1,0,0,0,.6.437,2.32,2.32,0,0,0,.752.186,2.168,2.168,0,0,0,.781-.158,2.216,2.216,0,0,0,.716-.6,10.117,10.117,0,0,0,.63-.96c.165-.294.494-.938.731-1.432l4.29-8.981c.236-.494.279-.48.086.036l-3.424,9.4a7.229,7.229,0,0,0-.358,1.232,1.85,1.85,0,0,0,.079.559,3.357,3.357,0,0,0,.236.516,1.475,1.475,0,0,0,.38.408,3.477,3.477,0,0,0,.43.251,1.781,1.781,0,0,0,.43.143,2.676,2.676,0,0,0,.487.043,1.625,1.625,0,0,0,.466-.079,2.011,2.011,0,0,0,.394-.193c.1-.072.272-.2.38-.294a2.741,2.741,0,0,0,.344-.365,7.721,7.721,0,0,0,.466-1.153l2.149-6.46c.172-.523.43-1.389.573-1.919l.107-.408c.143-.53.165-.53.05.014l-1.2,5.7a6.954,6.954,0,0,0-.179,1.268,1.823,1.823,0,0,0,.129.508,3.085,3.085,0,0,0,.265.437,2.956,2.956,0,0,0,.394.4,1.2,1.2,0,0,0,.408.229c.093.021.272.057.394.072a2.3,2.3,0,0,0,.494-.007,3.749,3.749,0,0,0,.48-.1,2.138,2.138,0,0,0,.444-.222,1.652,1.652,0,0,0,.38-.358,1.987,1.987,0,0,0,.222-.423c.043-.122.122-.322.172-.437a11.718,11.718,0,0,0,.322-1.2l3.459-15.076a8.128,8.128,0,0,0,.215-1.275,3.063,3.063,0,0,0-.086-.58,5.262,5.262,0,0,0-.172-.509,1.517,1.517,0,0,0-.329-.444,4.256,4.256,0,0,0-.752-.494c-.286-.15-.688-.365-.9-.48s-.695-.372-1.082-.58-1.1-.58-1.583-.845l-.186-.1c-.487-.258-1.282-.688-1.769-.945l-.867-.458a12.809,12.809,0,0,0-1.225-.58,2.852,2.852,0,0,0-.824-.1,4.805,4.805,0,0,0-1.268.329c-.43.172-1.2.487-1.7.695l-.351.143c-.509.208-1.3.537-1.748.723a13.458,13.458,0,0,0-1.662.888l-.63.408c-.466.3-1.2.824-1.626,1.167l-.351.279c-.43.344-1.1.874-1.5,1.175s-.9.731-1.117.945a4.272,4.272,0,0,0-.559.652,1.778,1.778,0,0,0-.186.666,1.933,1.933,0,0,0,.179.831,2.1,2.1,0,0,0,.508.637,3.312,3.312,0,0,0,.587.337,2.616,2.616,0,0,0,.752.136,1.721,1.721,0,0,0,.723-.129,12,12,0,0,0,1.046-.766l.988-.773a17.649,17.649,0,0,1,1.475-1.031,2.479,2.479,0,0,1,.938-.387.8.8,0,0,1,.387.15.634.634,0,0,1,.15.344,3.953,3.953,0,0,1-.48,1.1l-5.952,10.371C411.81,427.649,411.523,428.172,411.452,428.33Z" transform="translate(-410.777 -408.289)"/><path class="a" d="M411.452,428.33a2.143,2.143,0,0,0-.165.559,1.6,1.6,0,0,0,.115.623,3.029,3.029,0,0,0,.308.573,1.731,1.731,0,0,0,.451.387,4.94,4.94,0,0,0,.566.265,1.743,1.743,0,0,0,.659.057,1.9,1.9,0,0,0,.68-.215,3.064,3.064,0,0,0,.559-.466c.143-.158.437-.523.645-.809s.537-.759.723-1.039.494-.759.688-1.053.587-.91.881-1.361.652-1.017.8-1.246.487-.816.766-1.3l1.375-2.371c.279-.48.294-.466.043.021l-1.511,2.915c-.251.487-.58,1.146-.723,1.454s-.415.874-.609,1.246-.523,1.039-.738,1.483-.551,1.125-.752,1.526-.48.981-.63,1.3-.372.795-.494,1.046a7.23,7.23,0,0,0-.337.795,2.257,2.257,0,0,0-.115.616,3.137,3.137,0,0,0,.1.666,1.874,1.874,0,0,0,.337.652,2.1,2.1,0,0,0,.6.437,2.32,2.32,0,0,0,.752.186,2.168,2.168,0,0,0,.781-.158,2.216,2.216,0,0,0,.716-.6,10.117,10.117,0,0,0,.63-.96c.165-.294.494-.938.731-1.432l4.29-8.981c.236-.494.279-.48.086.036l-3.424,9.4a7.229,7.229,0,0,0-.358,1.232,1.85,1.85,0,0,0,.079.559,3.357,3.357,0,0,0,.236.516,1.475,1.475,0,0,0,.38.408,3.477,3.477,0,0,0,.43.251,1.781,1.781,0,0,0,.43.143,2.676,2.676,0,0,0,.487.043,1.625,1.625,0,0,0,.466-.079,2.011,2.011,0,0,0,.394-.193c.1-.072.272-.2.38-.294a2.741,2.741,0,0,0,.344-.365,7.721,7.721,0,0,0,.466-1.153l2.149-6.46c.172-.523.43-1.389.573-1.919l.107-.408c.143-.53.165-.53.05.014l-1.2,5.7a6.954,6.954,0,0,0-.179,1.268,1.823,1.823,0,0,0,.129.508,3.085,3.085,0,0,0,.265.437,2.956,2.956,0,0,0,.394.4,1.2,1.2,0,0,0,.408.229c.093.021.272.057.394.072a2.3,2.3,0,0,0,.494-.007,3.749,3.749,0,0,0,.48-.1,2.138,2.138,0,0,0,.444-.222,1.652,1.652,0,0,0,.38-.358,1.987,1.987,0,0,0,.222-.423c.043-.122.122-.322.172-.437a11.718,11.718,0,0,0,.322-1.2l3.459-15.076a8.128,8.128,0,0,0,.215-1.275,3.063,3.063,0,0,0-.086-.58,5.262,5.262,0,0,0-.172-.509,1.517,1.517,0,0,0-.329-.444,4.256,4.256,0,0,0-.752-.494c-.286-.15-.688-.365-.9-.48s-.695-.372-1.082-.58-1.1-.58-1.583-.845l-.186-.1c-.487-.258-1.282-.688-1.769-.945l-.867-.458a12.809,12.809,0,0,0-1.225-.58,2.852,2.852,0,0,0-.824-.1,4.805,4.805,0,0,0-1.268.329c-.43.172-1.2.487-1.7.695l-.351.143c-.509.208-1.3.537-1.748.723a13.458,13.458,0,0,0-1.662.888l-.63.408c-.466.3-1.2.824-1.626,1.167l-.351.279c-.43.344-1.1.874-1.5,1.175s-.9.731-1.117.945a4.272,4.272,0,0,0-.559.652,1.778,1.778,0,0,0-.186.666,1.933,1.933,0,0,0,.179.831,2.1,2.1,0,0,0,.508.637,3.312,3.312,0,0,0,.587.337,2.616,2.616,0,0,0,.752.136,1.721,1.721,0,0,0,.723-.129,12,12,0,0,0,1.046-.766l.988-.773a17.649,17.649,0,0,1,1.475-1.031,2.479,2.479,0,0,1,.938-.387.8.8,0,0,1,.387.15.634.634,0,0,1,.15.344,3.953,3.953,0,0,1-.48,1.1l-5.952,10.371C411.81,427.649,411.523,428.172,411.452,428.33Z" transform="translate(-410.777 -408.289)"/></g></g><path class="c" d="M710.426,431.465A5.046,5.046,0,0,0,706.1,425.8" transform="translate(-408.811 -182.705)"/><path class="c" d="M716.9,386.217c.666-4.3-2.643-8.38-7.4-9.117" transform="translate(-411.967 -137.493)"/><path class="c" d="M318.986,613.879a5.047,5.047,0,0,1-4.792-5.279" transform="translate(-44.96 -352.412)"/><path class="c" d="M273.389,612.024c-4.355-.122-7.764-4.111-7.635-8.924" transform="translate(0 -347.306)"/></g></svg>