<svg xmlns="http://www.w3.org/2000/svg" viewBox="0 0 43.3 43.3"><path d="M21.6 41.6c-11 0-20-9-20-20s9-20 20-20 20 9 20 20-8.9 20-20 20c0 0 0 0 0 0z" fill="none" stroke="#FFFFFF" stroke-width=".75" stroke-miterlimit="10"/><path d="M30.3 14.8s1.1 13.5-15.5 14.5c-.4 0-1.2-.2-1.4-1.2l-.1-3.6c.1-.3.3-.3.8-.5l3-.9c.3-.1.6 0 .9.2l1.4 1.7c.2.2.6.3.9.2 1-.4 3.5-2.1 4.9-4.6.2-.4.2-.6-.1-.9l-1.4-1c-.2-.4 0-1.3 0-1.3l.7-2.8c.1-.4.5-.6.9-.6h4.3c.3-.1.7.3.7.8h0z" fill="none" stroke="#FFFFFF" stroke-width=".75" stroke-linecap="round" stroke-linejoin="round"/></svg>