<svg xmlns="http://www.w3.org/2000/svg" viewBox="0 0 92 92"><circle data-name="ref círculo" cx="46.16" cy="46" r="45" fill="none" stroke="#ffffff" stroke-miterlimit="10" stroke-width="2"/><path d="M45 38.93a1.58 1.58 0 01-.38-.35 2.09 2.09 0 01-.28-.46 3.08 3.08 0 01-.16-.54h-.78a3.28 3.28 0 00.25.84 3.07 3.07 0 00.46.69 2.48 2.48 0 00.62.5 2 2 0 00.74.27v1.25h.74V39.9a3 3 0 00.77-.17 2.24 2.24 0 00.7-.37 2 2 0 00.5-.61 1.8 1.8 0 00.19-.87 1.47 1.47 0 00-.19-.77 2 2 0 00-.49-.56 3.71 3.71 0 00-.7-.42l-.78-.35v-2.59a1.48 1.48 0 011.27 1.07h.74a2.09 2.09 0 00-.26-.74 2 2 0 00-.46-.54 2.25 2.25 0 00-.6-.35 3.29 3.29 0 00-.69-.16v-.79h-.74v.79a2.32 2.32 0 00-.74.2 2.12 2.12 0 00-.61.39 1.62 1.62 0 00-.42.55 1.68 1.68 0 000 1.41 1.77 1.77 0 00.44.54 3 3 0 00.61.42l.71.34v2.82a1.82 1.82 0 01-.46-.21zm1.21-2.32l.5.25a2.52 2.52 0 01.45.3 1.46 1.46 0 01.32.34.75.75 0 01.12.41 1 1 0 01-.1.45 1.08 1.08 0 01-.28.39 1.45 1.45 0 01-.43.28 1.59 1.59 0 01-.58.14zM45 35.27a1.69 1.69 0 01-.36-.27 1.27 1.27 0 01-.24-.33.91.91 0 01-.09-.41 1 1 0 01.08-.37.87.87 0 01.23-.31 1.13 1.13 0 01.36-.24 1.69 1.69 0 01.48-.15v2.32zm.88 10.09a9 9 0 10-9-9 9 9 0 008.97 9zm0-15.92a7 7 0 11-7 7 7 7 0 016.97-7zm18.85 20a3.78 3.78 0 00-3.23.08 2.34 2.34 0 00-.85-1.34c-1-.81-2.53-.69-4.07.28a2.28 2.28 0 00-.64-.64c-1.2-.74-2.81-.1-4.09.55l-5.26 2.76.23.45c-1.79-.13-2.92-.61-5.7-2.66-.58-.41-1.14-.84-1.7-1.27s-1.16-.87-1.76-1.3l-.16-.09a5.94 5.94 0 00-4.95 0l-6.36 2.57.74 1.85L33.32 48a4 4 0 013.23 0c.56.39 1.09.8 1.63 1.21s1.16.88 1.74 1.29c4.11 3 5.35 3 8.67 3.09.76 0 1.66 0 2.74.08a.38.38 0 01.31.34c.06.33-.42.56-.67.66-5 2.3-8.07 1.12-12.5-1.1l-.9 1.79c3 1.49 5.49 2.59 8.32 2.59a13.9 13.9 0 005.86-1.44 2.61 2.61 0 001.87-2.83 2.39 2.39 0 00-2.19-2l-1.57-.06 2.87-1.51c1.72-.86 2.12-.62 2.12-.62s.1.12.1.56V52l2.47-1.71c1-.71 1.74-.71 2-.53s.24.57 0 1.22l-1.19 3.12 2.67-2c1.8-1.3 2.67-1 2.9-.91a.64.64 0 01.36.57.61.61 0 01-.36.55L49.87 61.1c-2.71 1.75-6.2 1.59-6.86 1.22l-.24-.1c-1.71-.44-3.09-.88-4.3-1.26-3.1-1-5.34-1.71-9.44-1.18l.26 2c3.65-.46 5.5.13 8.57 1.1 1.21.39 2.59.83 4.31 1.27a6.11 6.11 0 002.5.43A12.06 12.06 0 0051 62.79L64.8 54a2.58 2.58 0 001.36-2.3 2.67 2.67 0 00-1.46-2.3z" fill="#ffffff"/></svg>