<svg xmlns="http://www.w3.org/2000/svg" xmlns:xlink="http://www.w3.org/1999/xlink" width="40" height="40" viewBox="0 0 40 40"><defs><style>.a{fill:#e80033;stroke:#707070;opacity:0;}.b{clip-path:url(#a);}.c{fill:none;stroke:#e80033;stroke-linecap:round;stroke-linejoin:round;stroke-width:2px;}</style><clipPath id="a"><path class="a" d="M0,0H40V40H0Z"/></clipPath></defs><g class="b"><g transform="translate(1.738 9.402)"><g transform="translate(0.488 0.488)"><path class="c" d="M13.871,22.793H3.673A3.185,3.185,0,0,1,.488,19.608V3.673A3.185,3.185,0,0,1,3.673.488H32.991a3.185,3.185,0,0,1,3.185,3.185V19.608a3.185,3.185,0,0,1-3.185,3.185h-10.2" transform="translate(-0.488 -0.488)"/><line class="c" x2="14.634" transform="translate(10.527 15.614)"/><line class="c" x2="3.659" transform="translate(7.183 11.153)"/><line class="c" x2="3.659" transform="translate(16.019 11.153)"/><line class="c" x2="3.659" transform="translate(24.855 11.153)"/><line class="c" x2="3.659" transform="translate(7.183 6.692)"/><line class="c" x2="3.659" transform="translate(16.019 6.692)"/><line class="c" x2="3.659" transform="translate(24.855 6.692)"/></g></g></g></svg>