<svg xmlns="http://www.w3.org/2000/svg" viewBox="0 0 92 92"><circle data-name="ref círculo" cx="46" cy="46" r="45" fill="none" stroke="#ffffff" stroke-miterlimit="10" stroke-width="2"/><path d="M70.65 43.1l-9.36-14a1 1 0 00-1.39-.28l-5.41 3.61a2.52 2.52 0 00-.92 1.1 19 19 0 00-4.64 0 24.44 24.44 0 00-3.72.75 36.58 36.58 0 00-7.81-.06 2.41 2.41 0 00-.73-.69l-5.33-3.3a1.05 1.05 0 00-1.44.34l-8.48 13.7a1 1 0 00-.12.76 1 1 0 00.45.62L27 48.93l2.71 1.91v.06A3.1 3.1 0 0032 56a3.11 3.11 0 003.07 3h.06a3.07 3.07 0 00.74-.1 3.07 3.07 0 003 2.38 3.11 3.11 0 001.56-.43 3.12 3.12 0 005 1.18l.9.67a3.2 3.2 0 002 .66A3.25 3.25 0 0051 62.11a2.64 2.64 0 00.23-.35 3.05 3.05 0 00.37-1 3.39 3.39 0 003.82-1.15 3.31 3.31 0 00.68-2 3.4 3.4 0 002.77-1.35 3 3 0 00.23-.35 3.39 3.39 0 00.37-2.44 3.3 3.3 0 001.89-1.25 2.16 2.16 0 00.24-.35 3.38 3.38 0 00.45-1.72L66.67 47l3.68-2.46a1 1 0 00.3-1.44zm-41.87 3.95a.54.54 0 01-.75.18l-4.44-2.75a.06.06 0 010-.07l7.41-12h.06l4.44 2.75a.54.54 0 01.18.75zm4.16 6.61A1.14 1.14 0 0131.37 52l2.39-2.3a1.07 1.07 0 01.8-.32 1.14 1.14 0 011.12 1.15 1.17 1.17 0 01-.34.79L33 53.65zM36.69 56l-.78.76a1.06 1.06 0 01-.81.31 1.08 1.08 0 01-.79-.34 1.17 1.17 0 01-.32-.81 1.14 1.14 0 01.34-.78l2.38-2.3 1.52-1.48a1.16 1.16 0 01.79-.32 1.13 1.13 0 01.79.35 1.13 1.13 0 010 1.59l-3.13 3zm4.45 1.62L39.68 59a1.13 1.13 0 01-1.58-1.62l3.13-3 .87-.84a1 1 0 01.8-.31 1.11 1.11 0 011.1 1.1 1.08 1.08 0 01-.34.79l-.85.83-.1.07-1.5 1.48s-.04.06-.07.08zm4.57 1.51l-1.54 1.48a1.14 1.14 0 01-1.6 0 1.12 1.12 0 010-1.55l1.61-1.56a1.15 1.15 0 01.76-.29 1.13 1.13 0 01.79.35 1.09 1.09 0 01.32.8 1.12 1.12 0 01-.34.73zm14.2-8.28l-.1.15a1.4 1.4 0 01-2 .28l-1-.75-2.73-1.95a1 1 0 00-1.4.24 1 1 0 00.32 1.33l2.74 2 1.32 1a1.39 1.39 0 01.37 1.8l-.1.15a1.4 1.4 0 01-2 .27l-.6-.46-3.34-2.45a1 1 0 10-1.2 1.54l3.33 2.45a1.39 1.39 0 01-1.68 2.22l-1.36-1-.38-.33a1 1 0 00-1.31 1.51l.4.35a1.26 1.26 0 01.27 1.58.51.51 0 01-.09.13 1.26 1.26 0 01-1.77.25l-.6-.51.09-.08a3 3 0 00.84-1.28 3.14 3.14 0 00-.72-3.2 3.06 3.06 0 00-1.31-.79 3 3 0 00.17-.94 3 3 0 00-.88-2.23 3.08 3.08 0 00-2.19-1 2.92 2.92 0 00-.9.12 3.1 3.1 0 00-3-2.33 3 3 0 00-1.63.44 3.14 3.14 0 00-2.87-2 3 3 0 00-2.23.88l-1.17 1.17h-.06l-1.09-.77a3 3 0 00.41-.51L37.38 37a2.41 2.41 0 00.3-.75c1.07-.08 2.56-.17 4.09-.16 0 0 .07.07 0 .09l-4.59 2.62a3.8 3.8 0 00-1.76 4.57 3.69 3.69 0 003.45 2.39 3.61 3.61 0 001.84-.5L48.07 41l11.42 8a1.37 1.37 0 01.52.79 1.39 1.39 0 01-.1 1.02zm1.51-2.69a3.66 3.66 0 00-.7-.72l-12-8.44-.13-.05a.64.64 0 00-.21-.09 1.11 1.11 0 00-.19 0H48a.8.8 0 00-.2.07.88.88 0 00-.15.05l-7.82 4.52a1.77 1.77 0 01-2.27-.35 1.69 1.69 0 01.48-2.5l7.6-4.39a20.65 20.65 0 013.48-.71 16.5 16.5 0 014.45 0 3.72 3.72 0 00.21.39l7.66 11.49a3.19 3.19 0 00.37.44zm2.47-1.65a.59.59 0 01-.43.08.54.54 0 01-.35-.24l-7.66-11.53a.52.52 0 01-.09-.42.6.6 0 01.24-.4l4.54-3h.06l8.23 12.35v.07z" fill="#ffffff"/></svg>