<svg version="1.1" xmlns="http://www.w3.org/2000/svg" xmlns:xlink="http://www.w3.org/1999/xlink" x="0px" y="0px" width="38px"
	 height="38px" viewBox="0 0 39.3 38.3" enable-background="new 0 0 39.3 38.3" xml:space="preserve">
<g id="Camada_2" display="none">
	<rect x="-43.3" y="-25.3" display="inline" fill="#BF1334" stroke="#000000" stroke-miterlimit="10" width="245" height="164"/>
</g>
<g id="ícones_Redes_sociais">
	<g id="instagram">
		<path id="Shape-4" fill="#FFFFFF" d="M23.7,12.6c0.5,0,1.1,0.1,1.6,0.3c0.7,0.3,1.3,0.9,1.6,1.6c0.2,0.5,0.3,1,0.3,1.6
			c0,0.9,0.1,1.2,0.1,3.4s0,2.5-0.1,3.4c0,0.5-0.1,1.1-0.3,1.6c-0.3,0.7-0.9,1.3-1.6,1.6c-0.5,0.2-1,0.3-1.6,0.3
			c-0.9,0-1.2,0.1-3.4,0.1s-2.5,0-3.4-0.1c-0.5,0-1.1-0.1-1.6-0.3c-0.7-0.3-1.3-0.9-1.6-1.6c-0.2-0.5-0.3-1-0.3-1.6
			c0-0.9,0-1.2,0-3.4s0-2.5,0-3.4c0-0.5,0.1-1.1,0.3-1.6c0.3-0.7,0.9-1.3,1.6-1.6c0.5-0.2,1-0.3,1.6-0.3c0.9,0,1.2,0,3.4,0
			S22.8,12.5,23.7,12.6z M16.7,11.1c-0.7,0-1.4,0.1-2.1,0.4c-1.1,0.4-2,1.3-2.5,2.5c-0.2,0.7-0.4,1.4-0.4,2.1c0,0.9-0.1,1.2-0.1,3.5
			s0,2.6,0.1,3.5c0,0.7,0.2,1.4,0.4,2.1c0.4,1.1,1.3,2,2.5,2.5c0.7,0.2,1.4,0.4,2.1,0.4c0.9,0,1.2,0.1,3.5,0.1c2.3,0,2.6,0,3.5-0.1
			c0.7,0,1.4-0.2,2.1-0.4c1.1-0.4,2-1.3,2.5-2.5c0.2-0.7,0.4-1.4,0.4-2.1c0-0.9,0.1-1.2,0.1-3.5s0-2.6-0.1-3.5
			c0-0.7-0.2-1.4-0.4-2.1c-0.4-1.1-1.3-2-2.5-2.5c-0.7-0.2-1.4-0.4-2.1-0.4c-0.9,0-1.2-0.1-3.5-0.1S17.6,11,16.7,11.1L16.7,11.1z
			 M15.9,19.5c0,2.4,2,4.4,4.4,4.4s4.4-2,4.4-4.4s-2-4.4-4.4-4.4C17.8,15.1,15.9,17.1,15.9,19.5C15.9,19.5,15.9,19.5,15.9,19.5z
			 M17.4,19.5c0-1.6,1.3-2.8,2.8-2.8c1.6,0,2.8,1.3,2.8,2.8c0,1.6-1.3,2.8-2.8,2.8c0,0,0,0,0,0C18.7,22.4,17.4,21.1,17.4,19.5z
			 M24.7,16c-0.6,0-1-0.5-1-1s0.5-1,1-1s1,0.5,1,1v0C25.8,15.5,25.3,16,24.7,16z"/>
		
			<circle id="Oval_Copy_2-2" opacity="0.45" fill="none" stroke="#FFFFFF" stroke-width="2" stroke-linecap="round" enable-background="new    " cx="20.2" cy="19" r="17"/>
	</g>
	<g id="youtube" display="none">
		<path id="Shape-5" display="inline" fill="#FFFFFF" d="M28.6,22.1v-6c0-1.6-1.2-2.8-2.8-2.9c0,0-0.1,0-0.1,0h-11
			c-1.6,0-2.9,1.2-2.9,2.8c0,0,0,0.1,0,0.1v6c0,1.6,1.2,2.8,2.8,2.9c0,0,0.1,0,0.1,0h11c1.6,0,2.9-1.2,2.9-2.8
			C28.6,22.2,28.6,22.2,28.6,22.1 M23.4,19.1L18,22.4v-6.4L23.4,19.1"/>
		
			<circle id="Oval_Copy-2" display="inline" opacity="0.45" fill="none" stroke="#FFFFFF" stroke-width="2" stroke-linecap="round" enable-background="new    " cx="20" cy="19" r="17"/>
	</g>
	<g id="facebook" display="none">
		<path id="Shape-6" display="inline" fill="#FFFFFF" d="M22.1,28.6h-4v-9.4h-2V16h2V14c0-2.6,1.1-4.2,4.3-4.2h2.7v3.2h-1.7
			c-1.2,0-1.3,0.5-1.3,1.3l0,1.6h3l-0.4,3.2h-2.7V28.6L22.1,28.6L22.1,28.6z"/>
		
			<circle id="Oval-3" display="inline" opacity="0.45" fill="none" stroke="#FFFFFF" stroke-width="2" stroke-linecap="round" enable-background="new    " cx="20" cy="19" r="17"/>
	</g>
</g>
</svg>
