<svg xmlns="http://www.w3.org/2000/svg" width="36" height="36" viewBox="0 0 36 36">
  <g id="Grupo_10978" data-name="Grupo 10978" transform="translate(-19978 10039)">
    <g id="linkedin" transform="translate(19979 -10038)">
      <path id="Oval" d="M17,0A17,17,0,1,1,0,17,17,17,0,0,1,17,0Z" fill="rgba(255,255,255,0)" stroke="#fff" stroke-linecap="round" stroke-width="2" opacity="0.451"/>
    </g>
    <g id="_005-linkedin" data-name="005-linkedin" transform="translate(19989 -10029)">
      <path id="Caminho_5920" data-name="Caminho 5920" d="M6.488,159.684H9.622v9.428H6.488Zm0,0" transform="translate(-6.303 -154.774)" fill="#fff"/>
      <path id="Caminho_5921" data-name="Caminho 5921" d="M1.773.5a1.633,1.633,0,1,0-.041,3.258h.02A1.634,1.634,0,1,0,1.773.5Zm0,0" transform="translate(0 -0.5)" fill="#fff"/>
      <path id="Caminho_5922" data-name="Caminho 5922" d="M182.93,151.934a3.111,3.111,0,0,0-2.824,1.556v-1.335h-3.134v9.428h3.134v-5.265a2.148,2.148,0,0,1,.1-.765,1.715,1.715,0,0,1,1.608-1.146c1.134,0,1.587.865,1.587,2.132v5.044h3.133v-5.406C186.538,153.281,184.992,151.934,182.93,151.934Zm0,0" transform="translate(-171.538 -147.245)" fill="#fff"/>
    </g>
  </g>
</svg>
