<svg version="1.1" xmlns="http://www.w3.org/2000/svg" xmlns:xlink="http://www.w3.org/1999/xlink" x="0px" y="0px" width="38px"
	 height="38px" viewBox="0 0 39.3 38.3" enable-background="new 0 0 39.3 38.3" xml:space="preserve">
<g id="Camada_2" display="none">
	<rect x="-43.3" y="-25.3" display="inline" fill="#BF1334" stroke="#000000" stroke-miterlimit="10" width="245" height="164"/>
</g>
<g id="ícones_Redes_sociais">
	<g id="linkedin">
		
			<circle id="Oval-2" opacity="0.45" fill="none" stroke="#FFFFFF" stroke-width="2" stroke-linecap="round" enable-background="new    " cx="19" cy="19.2" r="17"/>
		<g id="_1497054009_Linkedin_Solid">
			<path id="XMLID_195_" fill="#FFFFFF" d="M12.2,15.8h2.9v9.4h-2.9V15.8z M13.7,11.2c0.9,0,1.7,0.7,1.7,1.7s-0.7,1.7-1.7,1.7
				c-0.9,0-1.7-0.7-1.7-1.7c0,0,0,0,0,0C12,11.9,12.8,11.2,13.7,11.2L13.7,11.2z"/>
			<path id="XMLID_192_" fill="#FFFFFF" d="M17,15.8h2.8v1.3h0c0.6-1,1.6-1.6,2.7-1.5c2.9,0,3.5,1.9,3.5,4.5v5.1h-2.9v-4.5
				c0-1.1,0-2.5-1.5-2.5c-1.5,0-1.7,1.2-1.7,2.4v4.6H17L17,15.8C17,15.8,17,15.8,17,15.8z"/>
		</g>
	</g>
	<g id="twitter" display="none">
		<path id="Shape-3" display="inline" fill="#FFFFFF" d="M26.6,14.5c0.7-0.5,1.3-1.2,1.5-2.1c-0.7,0.4-1.4,0.7-2.2,0.9
			c-0.6-0.7-1.6-1.2-2.6-1.2c-2,0.1-3.6,1.7-3.5,3.7c0,0.3,0,0.6,0.1,0.8c-2.9-0.2-5.5-1.6-7.3-3.9c-0.3,0.6-0.5,1.2-0.5,1.9
			c0,1.2,0.6,2.4,1.6,3.1c-0.6,0-1.1-0.2-1.6-0.5v0c0,1.7,1.1,3.2,2.8,3.6c-0.3,0.1-0.6,0.1-0.9,0.1c-0.2,0-0.4,0-0.7-0.1
			c0.4,1.5,1.8,2.5,3.3,2.6c-1.2,1-2.8,1.6-4.4,1.6c-0.3,0-0.6,0-0.8-0.1c1.6,1.1,3.5,1.7,5.4,1.7c6.5,0,10-5.7,10-10.6
			c0-0.2,0-0.3,0-0.5c0.7-0.5,1.3-1.2,1.8-1.9C28,14.2,27.3,14.4,26.6,14.5z"/>
		
			<circle id="Oval_Copy_3" display="inline" opacity="0.45" fill="none" stroke="#FFFFFF" stroke-width="2" stroke-linecap="round" enable-background="new    " cx="19.7" cy="19.2" r="17"/>
	</g>
	<g id="instagram" display="none">
		<path id="Shape-4" display="inline" fill="#FFFFFF" d="M23.7,12.6c0.5,0,1.1,0.1,1.6,0.3c0.7,0.3,1.3,0.9,1.6,1.6
			c0.2,0.5,0.3,1,0.3,1.6c0,0.9,0.1,1.2,0.1,3.4s0,2.5-0.1,3.4c0,0.5-0.1,1.1-0.3,1.6c-0.3,0.7-0.9,1.3-1.6,1.6
			c-0.5,0.2-1,0.3-1.6,0.3c-0.9,0-1.2,0.1-3.4,0.1s-2.5,0-3.4-0.1c-0.5,0-1.1-0.1-1.6-0.3c-0.7-0.3-1.3-0.9-1.6-1.6
			c-0.2-0.5-0.3-1-0.3-1.6c0-0.9,0-1.2,0-3.4s0-2.5,0-3.4c0-0.5,0.1-1.1,0.3-1.6c0.3-0.7,0.9-1.3,1.6-1.6c0.5-0.2,1-0.3,1.6-0.3
			c0.9,0,1.2,0,3.4,0S22.8,12.5,23.7,12.6z M16.7,11.1c-0.7,0-1.4,0.1-2.1,0.4c-1.1,0.4-2,1.3-2.5,2.5c-0.2,0.7-0.4,1.4-0.4,2.1
			c0,0.9-0.1,1.2-0.1,3.5s0,2.6,0.1,3.5c0,0.7,0.2,1.4,0.4,2.1c0.4,1.1,1.3,2,2.5,2.5c0.7,0.2,1.4,0.4,2.1,0.4
			c0.9,0,1.2,0.1,3.5,0.1c2.3,0,2.6,0,3.5-0.1c0.7,0,1.4-0.2,2.1-0.4c1.1-0.4,2-1.3,2.5-2.5c0.2-0.7,0.4-1.4,0.4-2.1
			c0-0.9,0.1-1.2,0.1-3.5s0-2.6-0.1-3.5c0-0.7-0.2-1.4-0.4-2.1c-0.4-1.1-1.3-2-2.5-2.5c-0.7-0.2-1.4-0.4-2.1-0.4
			c-0.9,0-1.2-0.1-3.5-0.1S17.6,11,16.7,11.1L16.7,11.1z M15.9,19.5c0,2.4,2,4.4,4.4,4.4s4.4-2,4.4-4.4s-2-4.4-4.4-4.4
			C17.8,15.1,15.9,17.1,15.9,19.5C15.9,19.5,15.9,19.5,15.9,19.5z M17.4,19.5c0-1.6,1.3-2.8,2.8-2.8c1.6,0,2.8,1.3,2.8,2.8
			c0,1.6-1.3,2.8-2.8,2.8c0,0,0,0,0,0C18.7,22.4,17.4,21.1,17.4,19.5z M24.7,16c-0.6,0-1-0.5-1-1s0.5-1,1-1s1,0.5,1,1v0
			C25.8,15.5,25.3,16,24.7,16z"/>
		
			<circle id="Oval_Copy_2-2" display="inline" opacity="0.45" fill="none" stroke="#FFFFFF" stroke-width="2" stroke-linecap="round" enable-background="new    " cx="20.2" cy="19" r="17"/>
	</g>
	<g id="youtube" display="none">
		<path id="Shape-5" display="inline" fill="#FFFFFF" d="M28.6,22.1v-6c0-1.6-1.2-2.8-2.8-2.9c0,0-0.1,0-0.1,0h-11
			c-1.6,0-2.9,1.2-2.9,2.8c0,0,0,0.1,0,0.1v6c0,1.6,1.2,2.8,2.8,2.9c0,0,0.1,0,0.1,0h11c1.6,0,2.9-1.2,2.9-2.8
			C28.6,22.2,28.6,22.2,28.6,22.1 M23.4,19.1L18,22.4v-6.4L23.4,19.1"/>
		
			<circle id="Oval_Copy-2" display="inline" opacity="0.45" fill="none" stroke="#FFFFFF" stroke-width="2" stroke-linecap="round" enable-background="new    " cx="20" cy="19" r="17"/>
	</g>
	<g id="facebook" display="none">
		<path id="Shape-6" display="inline" fill="#FFFFFF" d="M22.1,28.6h-4v-9.4h-2V16h2V14c0-2.6,1.1-4.2,4.3-4.2h2.7v3.2h-1.7
			c-1.2,0-1.3,0.5-1.3,1.3l0,1.6h3l-0.4,3.2h-2.7V28.6L22.1,28.6L22.1,28.6z"/>
		
			<circle id="Oval-3" display="inline" opacity="0.45" fill="none" stroke="#FFFFFF" stroke-width="2" stroke-linecap="round" enable-background="new    " cx="20" cy="19" r="17"/>
	</g>
</g>
</svg>
