<svg xmlns="http://www.w3.org/2000/svg" width="25" height="25" viewBox="0 0 25 25"><defs><style>.a,.b{fill:none;}.a{stroke:#e5173f;}.c,.d{stroke:none;}.d{fill:#c7c7c7;}</style></defs><g transform="translate(-1357 -988)"><path class="a" d="M1644.6,992.425l-4.043-3.593a.236.236,0,1,1,.313-.352l4.24,3.769a.236.236,0,0,1,0,.352l-4.24,3.769a.236.236,0,1,1-.313-.352Z" transform="translate(-272.898 8.45)"/><g class="b" transform="translate(1357 988)"><path class="c" d="M12.5,0A12.5,12.5,0,1,1,0,12.5,12.5,12.5,0,0,1,12.5,0Z"/><path class="d" d="M 12.5 1.799999237060547 C 9.641929626464844 1.799999237060547 6.954919815063477 2.912990570068359 4.9339599609375 4.9339599609375 C 2.912990570068359 6.954919815063477 1.799999237060547 9.641929626464844 1.799999237060547 12.5 C 1.799999237060547 15.35807037353516 2.912990570068359 18.04508018493652 4.9339599609375 20.0660400390625 C 6.954919815063477 22.08700942993164 9.641929626464844 23.20000076293945 12.5 23.20000076293945 C 15.35807037353516 23.20000076293945 18.04508018493652 22.08700942993164 20.0660400390625 20.0660400390625 C 22.08700942993164 18.04508018493652 23.20000076293945 15.35807037353516 23.20000076293945 12.5 C 23.20000076293945 9.641929626464844 22.08700942993164 6.954919815063477 20.0660400390625 4.9339599609375 C 18.04508018493652 2.912990570068359 15.35807037353516 1.799999237060547 12.5 1.799999237060547 M 12.5 0 C 19.40356063842773 0 25 5.596439361572266 25 12.5 C 25 19.40356063842773 19.40356063842773 25 12.5 25 C 5.596439361572266 25 0 19.40356063842773 0 12.5 C 0 5.596439361572266 5.596439361572266 0 12.5 0 Z"/></g></g></svg>