<svg version="1.1" xmlns="http://www.w3.org/2000/svg" xmlns:xlink="http://www.w3.org/1999/xlink" x="0px" y="0px" width="39.3px"
	 height="38.3px" viewBox="0 0 39.3 38.3" enable-background="new 0 0 39.3 38.3" xml:space="preserve">
<g id="Camada_2" display="none">
	<rect x="-43.3" y="-25.3" display="inline" fill="#BF1334" stroke="#000000" stroke-miterlimit="10" width="245" height="164"/>
</g>
<g id="ícones_Redes_sociais">
	<g id="youtube">
		<path id="Shape-5" fill="#FFFFFF" d="M28.6,22.1v-6c0-1.6-1.2-2.8-2.8-2.9c0,0-0.1,0-0.1,0h-11c-1.6,0-2.9,1.2-2.9,2.8
			c0,0,0,0.1,0,0.1v6c0,1.6,1.2,2.8,2.8,2.9c0,0,0.1,0,0.1,0h11c1.6,0,2.9-1.2,2.9-2.8C28.6,22.2,28.6,22.2,28.6,22.1 M23.4,19.1
			L18,22.4v-6.4L23.4,19.1"/>
		
			<circle id="Oval_Copy-2" opacity="0.45" fill="none" stroke="#FFFFFF" stroke-width="2" stroke-linecap="round" enable-background="new    " cx="20" cy="19" r="17"/>
	</g>
	<g id="facebook" display="none">
		<path id="Shape-6" display="inline" fill="#FFFFFF" d="M22.1,28.6h-4v-9.4h-2V16h2V14c0-2.6,1.1-4.2,4.3-4.2h2.7v3.2h-1.7
			c-1.2,0-1.3,0.5-1.3,1.3l0,1.6h3l-0.4,3.2h-2.7V28.6L22.1,28.6L22.1,28.6z"/>
		
			<circle id="Oval-3" display="inline" opacity="0.45" fill="none" stroke="#FFFFFF" stroke-width="2" stroke-linecap="round" enable-background="new    " cx="20" cy="19" r="17"/>
	</g>
</g>
</svg>
